<?xml version="1.0" encoding="utf-8"?>
<!-- Generator: Adobe Illustrator 22.1.0, SVG Export Plug-In . SVG Version: 6.00 Build 0)  -->
<svg version="1.1" id="Layer_1" xmlns="http://www.w3.org/2000/svg" xmlns:xlink="http://www.w3.org/1999/xlink" x="0px" y="0px"
	 viewBox="0 0 232.8 30.6" style="enable-background:new 0 0 232.8 30.6;" xml:space="preserve">
<style type="text/css">
	.st0{fill:#231F20;}
</style>
<g>
	<g>
		<path class="st0" d="M4.3,6c0-2.4-1.1-3.8-3.4-3.8H0V0.5h15c5.2,0,9,1,12.3,4.2c3,3,4.1,6.2,4.1,10.3c0,4.4-1.5,7.6-4.4,10.5
			c-3.4,3.4-7.2,4.7-11.8,4.7H0v-1.7h0.8c2.3,0,3.4-1.3,3.4-3.8V6z M8.9,24.3c0,2.9,1.3,4.2,5.2,4.2c4.2,0,6.8-1.2,8.9-3.2
			c2.2-2.2,3.2-4.9,3.2-9.2c0-2.7-0.6-7-3.6-10c-3.9-3.9-8.7-3.9-11.4-3.9H8.9V24.3z"/>
		<path class="st0" d="M38.3,6c0-2.4-1.1-3.8-3.4-3.8H34V0.5h15c5.2,0,9,1,12.3,4.2c3,3,4.1,6.2,4.1,10.3c0,4.4-1.5,7.6-4.4,10.5
			c-3.4,3.4-7.2,4.7-11.8,4.7H34v-1.7h0.8c2.3,0,3.4-1.3,3.4-3.8V6z M42.9,24.3c0,2.9,1.3,4.2,5.2,4.2c4.2,0,6.8-1.2,8.9-3.2
			c2.2-2.2,3.2-4.9,3.2-9.2c0-2.7-0.6-7-3.6-10c-3.9-3.9-8.7-3.9-11.4-3.9h-2.2V24.3z"/>
		<path class="st0" d="M82.6,18.2v3.4H69.1v-3.4H82.6z"/>
		<path class="st0" d="M90,6c0-2.4-1.1-3.8-3.4-3.8h-0.8V0.5h15c5.2,0,9,1,12.3,4.2c3,3,4.1,6.2,4.1,10.3c0,4.4-1.5,7.6-4.4,10.5
			c-3.4,3.4-7.2,4.7-11.8,4.7H85.7v-1.7h0.8c2.3,0,3.4-1.3,3.4-3.8V6z M94.6,24.3c0,2.9,1.3,4.2,5.2,4.2c4.2,0,6.8-1.2,8.9-3.2
			c2.2-2.2,3.2-4.9,3.2-9.2c0-2.7-0.6-7-3.6-10c-3.9-3.9-8.7-3.9-11.4-3.9h-2.2V24.3z"/>
		<path class="st0" d="M126.6,25.7c0,1.9,1,2.8,2.7,2.8h0.5v1.7h-10v-1.7h0.5c1.7,0,2.7-0.9,2.7-2.8V14.5l-2.8-1.5l0-0.9l5.6-2h0.8
			V25.7z M122.3,2.5c0-1.3,1.1-2.4,2.4-2.4c1.3,0,2.4,1,2.4,2.4c0,1.3-1.1,2.4-2.4,2.4C123.3,4.9,122.3,3.8,122.3,2.5z"/>
		<path class="st0" d="M133.4,23.8c0.4,3.7,2.4,5.3,4.7,5.3c2.6,0,3.9-1.5,3.9-2.9c0-0.8-0.3-1.6-0.9-2.2c-1.6-1.5-6.2-2.9-8.2-4.9
			c-1.2-1.2-1.5-2.6-1.5-3.5c0-3.2,2.8-5.4,6.6-5.4c2,0,4,0.6,5.7,1.9v4.5h-1.4c-0.7-3.6-2.3-5-4.6-5c-2.2,0-3.1,1.5-3.1,2.8
			c0,3.4,5.8,3.7,8.9,6.8c0.9,0.9,1.5,2.3,1.5,3.8c0,3.1-2.2,5.6-6.7,5.6c-2,0-4.4-0.5-6.4-1.3v-5.4H133.4z"/>
		<path class="st0" d="M163.8,25.9c-1.7,2.8-4.8,4.7-8,4.7c-2.5,0-4.3-0.9-5.8-2.3c-1.9-1.8-2.9-4.3-2.9-7.9c0-7,5-10.3,8.8-10.3
			c4.8,0,7.8,3.7,7.8,8.9h-13.4c0,4.1,3,8.4,7,8.4c1.7,0,3.8-0.8,5.6-2.3L163.8,25.9z M159.2,17.3c0-3.2-1.4-5.7-4.2-5.7
			c-3,0-4.7,3.2-4.7,5.7H159.2z"/>
		<path class="st0" d="M184.5,25.7c0,1.9,1,2.8,2.6,2.8h0.3v1.7h-9.7v-1.7h0.3c1.6,0,2.7-0.9,2.7-2.8v-8.6c0-2.4-1-4-3.5-4
			c-1.6,0-3.4,1.1-4.7,1.9v10.7c0,1.9,1,2.8,2.7,2.8h0.4v1.7h-9.8v-1.7h0.4c1.6,0,2.7-0.9,2.7-2.8V14.5l-2.8-1.5v-0.9l5.7-2h0.8v3.3
			c2-1.6,4-3.2,6.6-3.2c3.2,0,5.3,2,5.3,6V25.7z M169.7,6.9c0.1-3.4,1.5-5.3,3.9-5.3c1.1,0,2.1,0.4,4,1.7c1.3,0.9,2,1.2,2.6,1.2
			c0.7,0,1.3-0.5,1.6-1.2c0.2-0.5,0.3-0.6,0.4-1.7h0.6V2c0,3-1.7,5-4.1,5c-1,0-2.3-0.6-3.9-1.6c-1.6-1.1-2-1.3-2.7-1.3
			c-0.9,0-1.4,0.6-1.7,2.2c0,0.2-0.1,0.4-0.1,0.6H169.7z"/>
		<path class="st0" d="M192,27.8c-2-1.9-3-4.5-3-7.8c0-3.1,1.1-5.6,3-7.5c1.6-1.6,4-2.5,6.4-2.5c2.1,0,4.8,0.8,6.7,2.7
			c2,1.9,2.9,4.5,2.9,7.7c0,2.8-1,5.6-2.9,7.5c-1.5,1.5-3.7,2.6-6.4,2.6C196.4,30.6,193.9,29.7,192,27.8z M203.9,22.4
			c0-3.1-0.8-7.4-2.6-9.2c-0.7-0.7-1.8-1.5-3.4-1.5c-2.7,0-4.7,2.2-4.7,6.6c0,2.3,0.4,7.1,2.4,9.1c1.1,1.1,2.2,1.6,3.3,1.6
			C202.2,28.9,203.9,26.3,203.9,22.4z"/>
		<path class="st0" d="M218.4,0l0.2,2.4h-0.4c-0.2-1.3-0.8-1.7-2.3-1.7H215v6.9c0,1.3,0.1,1.5,1.3,1.6v0.4h-4.5V9.2
			c1.1-0.1,1.2-0.3,1.2-1.6v-7H212c-1.5,0-2,0.4-2.3,1.7h-0.4l0.2-2.4H218.4z M226.2,6.8l3.2-6.8h3.4v0.4c-1.2,0-1.3,0.2-1.3,1.6
			v5.6c0,1,0,1.2,0.4,1.4c0.2,0.1,0.4,0.1,0.9,0.2v0.4H228V9.2c0.6,0,0.9-0.1,1.1-0.2c0.3-0.2,0.3-0.4,0.3-1.3V1.8h0l-3.6,7.9h-0.4
			l-3.7-7.8h0v5.8c0,1.1,0.1,1.3,0.5,1.5c0.2,0.1,0.4,0.1,0.6,0.1h0.4v0.4h-3.7V9.2c0.6,0,0.8,0,1-0.2c0.3-0.2,0.4-0.4,0.4-1.4V2.1
			c0-1,0-1.2-0.3-1.4c-0.2-0.2-0.4-0.2-1.1-0.2V0h3.5L226.2,6.8z"/>
	</g>
</g>
</svg>
